<svg viewBox="197.17495711835335 97.84200000000001 432.6500857632933 350.246" xmlns="http://www.w3.org/2000/svg" style="max-height: 500px" width="432.6500857632933" height="350.246">
<path stroke-linejoin="round" stroke-width="0.25" stroke="#c90e0e" fill-rule="evenodd" fill="#c90e0e" d="M413.5 108.1C417.83 105.02 422.61 105.88 427.63 106.67C438.22 108.32 452.53 112.71 455.79 124.61C458.27 133.62 453.89 143.12 455.5 151.96C457.55 153.85 460.64 154.98 461.74 157.74C464.8 165.35 460.13 174.26 457.79 181.38C456.97 183.88 456.85 187.49 454.96 189.47C453.3 191.21 450.18 191.07 448.02 191.5C446.59 195.31 445.14 198.94 442.89 202.36C441.81 204.01 439.75 205.81 439.12 207.67C437.56 212.25 438.96 224.74 441.49 229.06C443.39 232.31 450.71 233.94 454.05 235.46C462.45 239.28 470.85 242.17 479.72 244.7C484.32 246.01 489.3 246.9 493.73 248.73C503.21 252.65 510.17 269.82 514.5 278.63C515.81 274.62 513.78 270.42 513.51 266.14C513.26 262.27 514.62 258.42 513.97 254.51C513.47 251.5 505.94 240.64 503.22 239.27C499.5 237.4 492.98 238.9 488.84 238.5C488.84 236.34 488.84 234.19 488.84 232.03C492.39 232.03 495.95 232.03 499.5 232.03C500.75 225.24 497.53 212.17 502.72 207.2C507.04 203.06 520.6 204.83 526.5 204.83C546.17 204.83 565.83 204.83 585.5 204.83C591.13 204.83 603.15 203.2 607.41 207.06C612.45 211.62 609.84 225.47 610.5 232.01C614.11 232.01 617.72 232.01 621.33 232.01C621.33 234.17 621.33 236.34 621.33 238.5C615.86 239 604.13 237.42 599.73 239.19C596.07 240.67 588.26 249.92 584.33 252.88C576.33 258.89 568.48 265.21 559.92 270.43C547.44 278.03 538.48 278.19 537.14 295.5C539.66 297.5 542.19 299.5 544.71 301.5C544.2 310.08 536.55 325.05 534.36 334.76C531.54 347.25 536.42 354.79 534.83 366.47C533.4 376.98 525.63 385.98 520.47 394.97C518.69 398.08 513.3 409.89 510.35 410.8C503.42 412.93 486.73 403.82 479.5 401.67C470.03 407.42 461.28 414.11 453.11 421.6C448.28 426.02 443.93 431.74 438.5 435.32C430.77 422.97 423.62 409.89 413.5 399.25C403.37 409.88 396.24 422.98 388.5 435.32C383.07 431.75 378.71 426.02 373.89 421.6C365.72 414.11 356.97 407.42 347.5 401.67C340.27 403.82 323.59 412.92 316.65 410.8C313.7 409.89 308.31 398.08 306.52 394.97C301.37 385.97 293.6 376.99 292.17 366.47C290.58 354.79 295.46 347.25 292.64 334.76C290.45 325.05 282.8 310.08 282.29 301.5C284.81 299.5 287.34 297.5 289.86 295.5C288.5 278.16 279.58 278.04 267.08 270.43C258.52 265.22 250.67 258.89 242.67 252.88C238.74 249.92 230.94 240.67 227.27 239.19C222.87 237.42 211.14 239 205.67 238.5C205.67 236.34 205.67 234.17 205.67 232.01C209.28 232.01 212.89 232.01 216.5 232.01C217.15 225.48 214.56 211.62 219.59 207.06C223.85 203.2 235.87 204.83 241.5 204.83C261.17 204.83 280.83 204.83 300.5 204.83C306.41 204.83 319.96 203.06 324.28 207.2C329.47 212.18 326.25 225.23 327.5 232.03C331.05 232.03 334.61 232.03 338.16 232.03C338.16 234.19 338.16 236.34 338.16 238.5C334.02 238.9 327.5 237.4 323.78 239.27C321.06 240.64 313.53 251.5 313.03 254.51C312.38 258.42 313.74 262.26 313.49 266.13C313.22 270.41 311.19 274.62 312.5 278.63C316.8 269.84 323.81 252.63 333.27 248.73C337.7 246.9 342.67 246.02 347.28 244.7C356.15 242.16 364.55 239.28 372.95 235.46C376.29 233.94 383.6 232.31 385.51 229.06C388.04 224.74 389.44 212.25 387.87 207.67C387.24 205.81 385.19 204.01 384.1 202.36C381.86 198.94 380.41 195.31 378.98 191.5C376.82 191.07 373.7 191.21 372.04 189.47C370.15 187.49 370.03 183.88 369.21 181.38C366.87 174.25 362.2 165.35 365.25 157.74C366.36 154.98 369.45 153.85 371.5 151.96C373.1 143.12 368.73 133.62 371.2 124.61C374.47 112.71 388.78 108.32 399.37 106.67C404.39 105.88 409.17 105.02 413.5 108.1ZM413.5 120.96C412.25 123.27 411.24 126.01 408.78 127.32C401.09 131.42 388.94 128.51 383.78 137.28C379.48 144.58 381.98 155.48 382.16 163.5C382.38 173.13 381.15 183.1 383.9 192.51C387.65 205.32 399.83 216.06 413.5 216.06C427.18 216.06 439.34 205.32 443.1 192.51C445.85 183.1 444.62 173.13 444.84 163.5C445.02 155.5 447.77 143.74 442.84 136.68C436.68 127.88 423.39 131.95 417.03 126.49C415.36 125.06 414.53 122.85 413.5 120.96ZM407.71 152.5C405.47 153.31 387.23 154.19 385.01 153.5C387.32 147.93 395.95 147.12 401.43 147.37C403.14 147.44 406.28 147.58 407.35 149.12C408.16 150.29 407.71 151.22 407.71 152.5ZM441.99 153.5C439.76 154.19 421.53 153.31 419.28 152.5C419.29 151.23 418.84 150.28 419.64 149.12C420.71 147.58 423.85 147.44 425.56 147.37C431.05 147.13 439.66 147.93 441.99 153.5ZM376.72 161.5C375.43 157.78 373.76 155.96 369.83 156.5C371.61 158.54 374.08 161.64 376.72 161.5ZM457.17 156.5C453.24 155.96 451.57 157.78 450.28 161.5C452.92 161.64 455.39 158.54 457.17 156.5ZM406.16 161.5C404.91 162.51 406.68 162.01 405.26 162.71C404.11 163.28 402.73 162.45 401.54 162.76C399.68 163.23 398.54 164.67 396.5 165.16C395.23 164.49 394.16 163.15 392.93 162.59C391.04 161.73 390.04 162.94 388.24 161.5C392.06 155.54 402.44 155.65 406.16 161.5ZM417.5 157.12C417.94 157.73 418.42 157.87 418.62 158.68C418.77 159.34 417.86 172 417.72 172.23C416.8 173.74 417.74 171.65 416.5 172.94C413.47 169.06 413.51 160.27 417.5 157.12ZM438.76 161.5C436.96 162.94 435.96 161.73 434.06 162.59C432.84 163.15 431.76 164.49 430.5 165.16C428.46 164.67 427.32 163.23 425.46 162.76C424.27 162.45 422.89 163.28 421.74 162.71C420.31 162.01 422.09 162.51 420.84 161.5C424.58 155.64 434.9 155.56 438.76 161.5ZM370.5 170.09C369.5 174.03 372.8 184.41 376.5 186.32C377.94 184.55 376.72 187.3 377.8 185.33C379.21 182.76 377.94 172.62 376.5 170.09C373.45 173.21 373.78 171.95 370.5 170.09ZM450.5 170.09C449.06 172.61 447.79 182.77 449.2 185.33C450.28 187.3 449.05 184.55 450.5 186.32C454.2 184.41 457.5 174.03 456.5 170.09C453.22 171.95 453.55 173.21 450.5 170.09ZM413.5 181.58C416.02 180.14 417.18 179.75 419.99 180.5C419.41 182.68 420.84 180.33 419.91 182.3C418.07 186.19 408.81 183.76 406.56 181.5C409.22 179.34 410.53 179.88 413.5 181.58ZM427.92 190.68C423.77 197.24 403.94 196.98 399.66 190.68C409.08 190.68 418.5 190.68 427.92 190.68ZM420.19 199.01C417.13 203.75 409.87 203.75 406.81 199.01C411.27 199.01 415.73 199.01 420.19 199.01ZM322.5 231.98C323.18 227.85 324.22 213.19 321.16 210.36C318.19 207.6 303.95 208.98 299.5 208.98C280.83 208.98 262.17 208.98 243.5 208.98C239.17 208.98 225.73 207.64 222.69 210.17C219.54 212.8 220.93 227.62 220.95 231.98C254.8 231.98 288.65 231.98 322.5 231.98ZM606.05 231.98C606.07 227.62 607.46 212.8 604.31 210.17C601.27 207.64 587.83 208.98 583.5 208.98C564.83 208.98 546.17 208.98 527.5 208.98C523.05 208.98 508.81 207.6 505.84 210.35C502.78 213.18 503.81 227.86 504.5 231.98C538.35 231.98 572.2 231.98 606.05 231.98ZM410.66 219.5C404.34 217.72 399.11 215.72 393.42 212.5C392.27 219.17 391.12 225.83 389.97 232.5C396.72 234.34 403.63 236.09 410.66 235.73C410.66 230.32 410.66 224.91 410.66 219.5ZM433.58 212.5C427.88 215.72 422.66 217.71 416.34 219.5C416.34 224.91 416.34 230.32 416.34 235.73C423.37 236.09 430.28 234.34 437.03 232.5C435.88 225.83 434.73 219.17 433.58 212.5ZM264.5 256.11C256.05 252.84 244.3 238.12 235.77 239.5C237.49 245.03 243.93 248.57 248.35 252.1C254.08 256.7 259.59 261.78 265.93 265.55C272.67 269.54 280.98 272.34 286.64 277.89C291.66 282.81 292.56 290.5 294.5 296.92C299.87 297.38 304.6 296.96 309.5 294.64C310.82 289.83 308.34 285.36 308.04 280.5C307.74 275.62 309.67 271.27 309.96 266.5C310.18 262.82 308.92 259.22 309.27 255.56C309.91 248.83 315.88 245.62 317.1 239.5C307.01 237.1 305.69 252.79 298.25 256.73C291.21 260.45 282.13 254.45 275.11 256.5C279.61 263.11 301 265.68 299.17 275.5C295.39 275.5 295.13 272.4 292.28 270.24C285.57 265.16 275.56 265.22 271.23 257.27C268.26 251.81 267.97 242.27 262.5 238.9C258.86 243.02 264.4 250.9 264.5 256.11ZM259.5 249.74C259.55 246.47 252.94 239.98 249.4 239.14C247.85 238.77 247.35 239.19 245.97 239.5C250.48 242.91 254.99 246.33 259.5 249.74ZM258.5 239.31C257.28 239.38 256.07 239.44 254.85 239.5C256.07 240.65 257.28 241.8 258.5 242.95C258.5 241.74 258.5 240.52 258.5 239.31ZM306.96 238.81C294.04 238.81 281.11 238.81 268.19 238.81C269.3 242.31 270.37 247.69 273.19 250.27C276.38 253.17 293.27 255.35 296.92 253.41C299.9 251.83 305.37 241.97 306.96 238.81ZM551.89 256.5C544.87 254.45 535.78 260.46 528.75 256.73C521.32 252.79 519.98 237.1 509.9 239.5C511.12 245.62 517.09 248.83 517.73 255.57C518.07 259.22 516.82 262.82 517.04 266.5C517.33 271.27 519.26 275.62 518.96 280.5C518.66 285.36 516.17 289.83 517.5 294.64C522.4 296.96 527.13 297.38 532.5 296.92C534.44 290.5 535.34 282.81 540.36 277.89C546.02 272.34 554.33 269.54 561.07 265.55C567.41 261.79 572.92 256.7 578.65 252.1C583.06 248.57 589.5 245.03 591.23 239.5C582.7 238.12 570.95 252.84 562.5 256.11C562.6 250.91 568.13 243.02 564.5 238.9C559.02 242.26 558.74 251.81 555.77 257.27C551.45 265.22 541.43 265.16 534.72 270.24C531.87 272.39 531.61 275.5 527.83 275.5C525.99 265.68 547.4 263.11 551.89 256.5ZM558.81 238.81C545.88 238.81 532.96 238.81 520.04 238.81C521.63 241.97 527.1 251.83 530.08 253.41C533.73 255.35 550.62 253.17 553.81 250.27C556.63 247.69 557.7 242.31 558.81 238.81ZM568.5 239.31C568.5 240.52 568.5 241.74 568.5 242.95C569.72 241.8 570.93 240.65 572.15 239.5C570.93 239.44 569.72 239.37 568.5 239.31ZM581.03 239.5C579.65 239.19 579.15 238.77 577.6 239.14C574.06 239.98 567.45 246.47 567.5 249.74C572.01 246.33 576.52 242.91 581.03 239.5ZM389.5 246.26C383.36 256.68 381.97 268.67 380.64 280.43C378.44 299.97 377.69 319.85 378.13 339.5C378.3 347.17 379.02 366.85 382.12 373.37C383.18 375.6 386.06 377.05 387.95 378.53C394.62 383.8 404.73 389.96 413.5 389.96C422.27 389.96 432.38 383.8 439.05 378.53C440.94 377.05 443.82 375.6 444.88 373.37C447.98 366.86 448.7 347.17 448.87 339.5C449.31 319.84 448.55 299.97 446.36 280.43C445.04 268.66 443.62 256.69 437.5 246.26C421.22 248.54 405.78 248.54 389.5 246.26ZM411.74 273.29C417.95 271.32 420.86 280.51 414.86 282.4C409.22 284.18 406.22 275.05 411.74 273.29ZM413.52 312.43C419.6 312.41 419.64 322.02 413.5 322.01C407.36 322.01 407.44 312.46 413.52 312.43ZM411.72 352.25C417.98 350.24 420.82 359.41 414.78 361.35C409.22 363.13 406.26 354.01 411.72 352.25ZM755.56"/>
</svg>